<mxfile host="app.diagrams.net" modified="2021-10-06T09:26:39.125Z" agent="5.0 (Windows NT 10.0; Win64; x64) AppleWebKit/537.36 (KHTML, like Gecko) Chrome/94.0.4606.71 Safari/537.36 Edg/94.0.992.38" etag="YKnXGCeGzwOgNfE5dqgQ" version="15.4.1" type="github">
  <diagram id="xt7MOXR7QnOjlG_rGyG5" name="Page-1">
    <mxGraphModel dx="898" dy="490" grid="0" gridSize="10" guides="1" tooltips="1" connect="1" arrows="1" fold="1" page="1" pageScale="1" pageWidth="500" pageHeight="700" math="0" shadow="0">
      <root>
        <mxCell id="0" />
        <mxCell id="1" parent="0" />
        <mxCell id="J45coZ76drWthjwCdcgT-37" value="" style="rounded=0;whiteSpace=wrap;html=1;hachureGap=4;pointerEvents=0;dashed=1;fillColor=#fff2cc;strokeColor=#d6b656;" parent="1" vertex="1">
          <mxGeometry x="10" y="370" width="450" height="280" as="geometry" />
        </mxCell>
        <mxCell id="J45coZ76drWthjwCdcgT-24" value="" style="rounded=0;whiteSpace=wrap;html=1;hachureGap=4;pointerEvents=0;dashed=1;fillColor=#dae8fc;strokeColor=#6c8ebf;" parent="1" vertex="1">
          <mxGeometry x="20" y="10" width="430" height="290" as="geometry" />
        </mxCell>
        <mxCell id="J45coZ76drWthjwCdcgT-9" style="edgeStyle=none;curved=1;rounded=0;orthogonalLoop=1;jettySize=auto;html=1;entryX=0.5;entryY=0;entryDx=0;entryDy=0;endArrow=open;startSize=14;endSize=14;sourcePerimeterSpacing=8;targetPerimeterSpacing=8;exitX=0.5;exitY=1;exitDx=0;exitDy=0;" parent="1" source="J45coZ76drWthjwCdcgT-1" target="J45coZ76drWthjwCdcgT-2" edge="1">
          <mxGeometry relative="1" as="geometry">
            <Array as="points" />
          </mxGeometry>
        </mxCell>
        <mxCell id="J45coZ76drWthjwCdcgT-1" value="&lt;font style=&quot;font-size: 13px&quot;&gt;设计问题并制作训练数据集&lt;/font&gt;" style="rounded=1;whiteSpace=wrap;html=1;hachureGap=4;pointerEvents=0;" parent="1" vertex="1">
          <mxGeometry x="155" y="20" width="160" height="40" as="geometry" />
        </mxCell>
        <mxCell id="J45coZ76drWthjwCdcgT-16" style="edgeStyle=none;curved=1;rounded=0;orthogonalLoop=1;jettySize=auto;html=1;entryX=0;entryY=0.5;entryDx=0;entryDy=0;endArrow=open;startSize=14;endSize=14;sourcePerimeterSpacing=8;targetPerimeterSpacing=8;exitX=1;exitY=0.5;exitDx=0;exitDy=0;" parent="1" source="J45coZ76drWthjwCdcgT-2" target="J45coZ76drWthjwCdcgT-6" edge="1">
          <mxGeometry relative="1" as="geometry" />
        </mxCell>
        <mxCell id="J45coZ76drWthjwCdcgT-20" style="edgeStyle=none;curved=1;rounded=0;orthogonalLoop=1;jettySize=auto;html=1;entryX=0.5;entryY=0;entryDx=0;entryDy=0;endArrow=open;startSize=14;endSize=14;sourcePerimeterSpacing=8;targetPerimeterSpacing=8;exitX=0.5;exitY=1;exitDx=0;exitDy=0;" parent="1" source="J45coZ76drWthjwCdcgT-2" target="J45coZ76drWthjwCdcgT-14" edge="1">
          <mxGeometry relative="1" as="geometry" />
        </mxCell>
        <mxCell id="J45coZ76drWthjwCdcgT-2" value="&lt;font style=&quot;font-size: 13px&quot;&gt;进行静态情感抽取并得到相应损失&lt;/font&gt;" style="rounded=1;whiteSpace=wrap;html=1;hachureGap=4;pointerEvents=0;" parent="1" vertex="1">
          <mxGeometry x="30" y="90" width="110" height="50" as="geometry" />
        </mxCell>
        <mxCell id="J45coZ76drWthjwCdcgT-17" style="edgeStyle=none;curved=1;rounded=0;orthogonalLoop=1;jettySize=auto;html=1;entryX=0;entryY=0.5;entryDx=0;entryDy=0;endArrow=open;startSize=14;endSize=14;sourcePerimeterSpacing=8;targetPerimeterSpacing=8;exitX=1;exitY=0.5;exitDx=0;exitDy=0;" parent="1" source="J45coZ76drWthjwCdcgT-6" target="J45coZ76drWthjwCdcgT-11" edge="1">
          <mxGeometry relative="1" as="geometry" />
        </mxCell>
        <mxCell id="J45coZ76drWthjwCdcgT-19" style="edgeStyle=none;curved=1;rounded=0;orthogonalLoop=1;jettySize=auto;html=1;entryX=0.5;entryY=0;entryDx=0;entryDy=0;endArrow=open;startSize=14;endSize=14;sourcePerimeterSpacing=8;targetPerimeterSpacing=8;exitX=0.5;exitY=1;exitDx=0;exitDy=0;" parent="1" source="J45coZ76drWthjwCdcgT-6" target="J45coZ76drWthjwCdcgT-14" edge="1">
          <mxGeometry relative="1" as="geometry" />
        </mxCell>
        <mxCell id="J45coZ76drWthjwCdcgT-6" value="&lt;font style=&quot;font-size: 13px&quot;&gt;进行动态原因抽取并得到相应损失&lt;/font&gt;" style="rounded=1;whiteSpace=wrap;html=1;hachureGap=4;pointerEvents=0;" parent="1" vertex="1">
          <mxGeometry x="180" y="90" width="110" height="50" as="geometry" />
        </mxCell>
        <mxCell id="J45coZ76drWthjwCdcgT-18" style="edgeStyle=none;curved=1;rounded=0;orthogonalLoop=1;jettySize=auto;html=1;entryX=0.5;entryY=0;entryDx=0;entryDy=0;endArrow=open;startSize=14;endSize=14;sourcePerimeterSpacing=8;targetPerimeterSpacing=8;exitX=0.5;exitY=1;exitDx=0;exitDy=0;" parent="1" source="J45coZ76drWthjwCdcgT-11" target="J45coZ76drWthjwCdcgT-14" edge="1">
          <mxGeometry relative="1" as="geometry" />
        </mxCell>
        <mxCell id="J45coZ76drWthjwCdcgT-11" value="&lt;font style=&quot;font-size: 13px&quot;&gt;进行动态情感抽取并得到相应损失&lt;/font&gt;" style="rounded=1;whiteSpace=wrap;html=1;hachureGap=4;pointerEvents=0;" parent="1" vertex="1">
          <mxGeometry x="330" y="90" width="110" height="50" as="geometry" />
        </mxCell>
        <mxCell id="J45coZ76drWthjwCdcgT-23" style="edgeStyle=none;curved=1;rounded=0;orthogonalLoop=1;jettySize=auto;html=1;entryX=0.5;entryY=0;entryDx=0;entryDy=0;endArrow=open;startSize=14;endSize=14;sourcePerimeterSpacing=8;targetPerimeterSpacing=8;exitX=0.5;exitY=1;exitDx=0;exitDy=0;" parent="1" source="J45coZ76drWthjwCdcgT-14" target="J45coZ76drWthjwCdcgT-22" edge="1">
          <mxGeometry relative="1" as="geometry" />
        </mxCell>
        <mxCell id="J45coZ76drWthjwCdcgT-14" value="&lt;font style=&quot;font-size: 13px&quot;&gt;将三个损失相加并进行反向传播训练&lt;/font&gt;" style="rounded=1;whiteSpace=wrap;html=1;hachureGap=4;pointerEvents=0;" parent="1" vertex="1">
          <mxGeometry x="155" y="180" width="160" height="40" as="geometry" />
        </mxCell>
        <mxCell id="J45coZ76drWthjwCdcgT-26" style="edgeStyle=none;curved=1;rounded=0;orthogonalLoop=1;jettySize=auto;html=1;entryX=0.5;entryY=0;entryDx=0;entryDy=0;endArrow=open;startSize=14;endSize=14;sourcePerimeterSpacing=8;targetPerimeterSpacing=8;exitX=0.5;exitY=1;exitDx=0;exitDy=0;" parent="1" source="J45coZ76drWthjwCdcgT-22" target="J45coZ76drWthjwCdcgT-25" edge="1">
          <mxGeometry relative="1" as="geometry" />
        </mxCell>
        <mxCell id="J45coZ76drWthjwCdcgT-22" value="&lt;font style=&quot;font-size: 13px&quot;&gt;得到最优模型参数&lt;/font&gt;" style="rounded=1;whiteSpace=wrap;html=1;hachureGap=4;pointerEvents=0;" parent="1" vertex="1">
          <mxGeometry x="155" y="250" width="160" height="40" as="geometry" />
        </mxCell>
        <mxCell id="J45coZ76drWthjwCdcgT-30" style="edgeStyle=none;curved=1;rounded=0;orthogonalLoop=1;jettySize=auto;html=1;entryX=0.5;entryY=0;entryDx=0;entryDy=0;endArrow=open;startSize=14;endSize=14;sourcePerimeterSpacing=8;targetPerimeterSpacing=8;exitX=0.5;exitY=1;exitDx=0;exitDy=0;" parent="1" source="J45coZ76drWthjwCdcgT-25" target="J45coZ76drWthjwCdcgT-27" edge="1">
          <mxGeometry relative="1" as="geometry" />
        </mxCell>
        <mxCell id="J45coZ76drWthjwCdcgT-25" value="&lt;font style=&quot;font-size: 13px&quot;&gt;保存最优模型参数&lt;/font&gt;" style="rounded=1;whiteSpace=wrap;html=1;hachureGap=4;pointerEvents=0;" parent="1" vertex="1">
          <mxGeometry x="155" y="320" width="160" height="40" as="geometry" />
        </mxCell>
        <mxCell id="J45coZ76drWthjwCdcgT-31" style="edgeStyle=none;curved=1;rounded=0;orthogonalLoop=1;jettySize=auto;html=1;entryX=0.5;entryY=0;entryDx=0;entryDy=0;endArrow=open;startSize=14;endSize=14;sourcePerimeterSpacing=8;targetPerimeterSpacing=8;exitX=0.5;exitY=1;exitDx=0;exitDy=0;" parent="1" source="J45coZ76drWthjwCdcgT-27" target="J45coZ76drWthjwCdcgT-28" edge="1">
          <mxGeometry relative="1" as="geometry" />
        </mxCell>
        <mxCell id="J45coZ76drWthjwCdcgT-27" value="&lt;span style=&quot;font-size: 13px&quot;&gt;将模型应用于某个工程应用&lt;/span&gt;" style="rounded=1;whiteSpace=wrap;html=1;hachureGap=4;pointerEvents=0;" parent="1" vertex="1">
          <mxGeometry x="152.5" y="390" width="165" height="40" as="geometry" />
        </mxCell>
        <mxCell id="J45coZ76drWthjwCdcgT-32" style="edgeStyle=none;curved=1;rounded=0;orthogonalLoop=1;jettySize=auto;html=1;entryX=0;entryY=0.5;entryDx=0;entryDy=0;endArrow=open;startSize=14;endSize=14;sourcePerimeterSpacing=8;targetPerimeterSpacing=8;exitX=1;exitY=0.5;exitDx=0;exitDy=0;" parent="1" source="J45coZ76drWthjwCdcgT-28" target="J45coZ76drWthjwCdcgT-29" edge="1">
          <mxGeometry relative="1" as="geometry" />
        </mxCell>
        <mxCell id="J45coZ76drWthjwCdcgT-28" value="&lt;span style=&quot;font-size: 13px&quot;&gt;抽取出文档的所有情感子句&lt;/span&gt;" style="rounded=1;whiteSpace=wrap;html=1;hachureGap=4;pointerEvents=0;" parent="1" vertex="1">
          <mxGeometry x="20" y="460" width="110" height="50" as="geometry" />
        </mxCell>
        <mxCell id="J45coZ76drWthjwCdcgT-34" style="edgeStyle=none;curved=1;rounded=0;orthogonalLoop=1;jettySize=auto;html=1;entryX=0;entryY=0.5;entryDx=0;entryDy=0;endArrow=open;startSize=14;endSize=14;sourcePerimeterSpacing=8;targetPerimeterSpacing=8;exitX=1;exitY=0.5;exitDx=0;exitDy=0;" parent="1" source="J45coZ76drWthjwCdcgT-29" target="J45coZ76drWthjwCdcgT-33" edge="1">
          <mxGeometry relative="1" as="geometry" />
        </mxCell>
        <mxCell id="J45coZ76drWthjwCdcgT-29" value="&lt;span style=&quot;font-size: 13px&quot;&gt;根据情感子句抽取出对应的原因子句，得到所有候选的情感原因对&lt;/span&gt;" style="rounded=1;whiteSpace=wrap;html=1;hachureGap=4;pointerEvents=0;" parent="1" vertex="1">
          <mxGeometry x="155" y="460" width="160" height="50" as="geometry" />
        </mxCell>
        <mxCell id="J45coZ76drWthjwCdcgT-36" style="edgeStyle=none;curved=1;rounded=0;orthogonalLoop=1;jettySize=auto;html=1;entryX=0.5;entryY=0;entryDx=0;entryDy=0;endArrow=open;startSize=14;endSize=14;sourcePerimeterSpacing=8;targetPerimeterSpacing=8;exitX=0.5;exitY=1;exitDx=0;exitDy=0;" parent="1" source="J45coZ76drWthjwCdcgT-33" target="J45coZ76drWthjwCdcgT-35" edge="1">
          <mxGeometry relative="1" as="geometry" />
        </mxCell>
        <mxCell id="J45coZ76drWthjwCdcgT-33" value="&lt;span style=&quot;font-size: 13px&quot;&gt;筛选出所有正确的情感原因对&lt;/span&gt;" style="rounded=1;whiteSpace=wrap;html=1;hachureGap=4;pointerEvents=0;" parent="1" vertex="1">
          <mxGeometry x="340" y="460" width="110" height="50" as="geometry" />
        </mxCell>
        <mxCell id="lKI2EsNN6anGwtkHkK-t-2" style="edgeStyle=none;orthogonalLoop=1;jettySize=auto;html=1;endArrow=open;endFill=0;targetPerimeterSpacing=0;curved=1;" edge="1" parent="1" source="J45coZ76drWthjwCdcgT-35" target="lKI2EsNN6anGwtkHkK-t-1">
          <mxGeometry relative="1" as="geometry" />
        </mxCell>
        <mxCell id="J45coZ76drWthjwCdcgT-35" value="&lt;span style=&quot;font-size: 13px&quot;&gt;得到文档的所有情感原因对&lt;/span&gt;" style="rounded=1;whiteSpace=wrap;html=1;hachureGap=4;pointerEvents=0;" parent="1" vertex="1">
          <mxGeometry x="142.5" y="540" width="185" height="30" as="geometry" />
        </mxCell>
        <mxCell id="J45coZ76drWthjwCdcgT-38" value="&lt;b&gt;&lt;i&gt;训练阶段&lt;/i&gt;&lt;/b&gt;" style="text;html=1;strokeColor=none;fillColor=none;align=center;verticalAlign=middle;whiteSpace=wrap;rounded=0;dashed=1;hachureGap=4;pointerEvents=0;" parent="1" vertex="1">
          <mxGeometry x="30" y="230" width="70" height="30" as="geometry" />
        </mxCell>
        <mxCell id="J45coZ76drWthjwCdcgT-39" value="&lt;b&gt;&lt;i&gt;工程应用阶段&lt;/i&gt;&lt;/b&gt;" style="text;html=1;strokeColor=none;fillColor=none;align=center;verticalAlign=middle;whiteSpace=wrap;rounded=0;dashed=1;hachureGap=4;pointerEvents=0;" parent="1" vertex="1">
          <mxGeometry x="30" y="550" width="80" height="30" as="geometry" />
        </mxCell>
        <mxCell id="lKI2EsNN6anGwtkHkK-t-1" value="&lt;span style=&quot;font-size: 13px&quot;&gt;应用所有的情感原因对，针对具体工程应用领域的目标群体进行情感和原因的分析&lt;/span&gt;" style="rounded=1;whiteSpace=wrap;html=1;hachureGap=4;pointerEvents=0;" vertex="1" parent="1">
          <mxGeometry x="142.5" y="590" width="185" height="50" as="geometry" />
        </mxCell>
      </root>
    </mxGraphModel>
  </diagram>
</mxfile>
